<svg width="81" height="24" viewBox="0 0 81 24" fill="none" xmlns="http://www.w3.org/2000/svg">
<path d="M0 12C0 5.37258 5.37258 0 12 0H68.19C74.8174 0 80.19 5.37258 80.19 12C80.19 18.6274 74.8174 24 68.19 24H12C5.37259 24 0 18.6274 0 12Z" fill="url(#paint0_linear_6314_2931)"/>
<path d="M8.29297 8.11798H6.66797C6.66797 11.251 9.21597 13.799 12.362 13.799V17.049C12.362 17.517 12.726 17.894 13.142 17.894C13.558 17.894 13.987 17.517 13.987 17.075V13.825C13.987 10.679 11.439 8.11798 8.29297 8.11798ZM18.043 6.50598C15.898 6.50598 14.052 7.68898 13.077 9.44398C13.779 10.198 14.299 11.134 14.572 12.174C17.432 11.875 19.668 9.45698 19.668 6.50598H18.043Z" fill="#166534"/>
<path d="M32.423 12.3636C32.423 13.1638 32.2691 13.8421 31.9613 14.3984C31.6536 14.9548 31.2369 15.3774 30.7113 15.6662C30.1881 15.955 29.601 16.0994 28.95 16.0994C28.2966 16.0994 27.7083 15.9538 27.1851 15.6626C26.6619 15.3714 26.2464 14.9489 25.9386 14.3949C25.6332 13.8385 25.4805 13.1615 25.4805 12.3636C25.4805 11.5634 25.6332 10.8852 25.9386 10.3288C26.2464 9.77249 26.6619 9.34991 27.1851 9.06108C27.7083 8.77225 28.2966 8.62784 28.95 8.62784C29.601 8.62784 30.1881 8.77225 30.7113 9.06108C31.2369 9.34991 31.6536 9.77249 31.9613 10.3288C32.2691 10.8852 32.423 11.5634 32.423 12.3636ZM30.6261 12.3636C30.6261 11.8902 30.5587 11.4901 30.4237 11.1634C30.2911 10.8366 30.0994 10.5893 29.8484 10.4212C29.5998 10.2531 29.3004 10.169 28.95 10.169C28.602 10.169 28.3025 10.2531 28.0515 10.4212C27.8006 10.5893 27.6077 10.8366 27.4727 11.1634C27.3401 11.4901 27.2738 11.8902 27.2738 12.3636C27.2738 12.8371 27.3401 13.2372 27.4727 13.5639C27.6077 13.8906 27.8006 14.138 28.0515 14.3061C28.3025 14.4742 28.602 14.5582 28.95 14.5582C29.3004 14.5582 29.5998 14.4742 29.8484 14.3061C30.0994 14.138 30.2911 13.8906 30.4237 13.5639C30.5587 13.2372 30.6261 12.8371 30.6261 12.3636ZM33.1293 16V8.72727H36.1335C36.678 8.72727 37.148 8.82552 37.5433 9.02202C37.9411 9.21615 38.2476 9.4955 38.4631 9.86009C38.6785 10.2223 38.7862 10.652 38.7862 11.1491C38.7862 11.6534 38.6762 12.0819 38.456 12.4347C38.2358 12.785 37.9233 13.0526 37.5185 13.2372C37.1137 13.4195 36.6342 13.5107 36.0803 13.5107H34.1804V12.1257H35.7536C36.0187 12.1257 36.2401 12.0914 36.4176 12.0227C36.5976 11.9517 36.7337 11.8452 36.826 11.7031C36.9183 11.5587 36.9645 11.3741 36.9645 11.1491C36.9645 10.9242 36.9183 10.7384 36.826 10.5916C36.7337 10.4425 36.5976 10.3312 36.4176 10.2578C36.2377 10.1821 36.0163 10.1442 35.7536 10.1442H34.8871V16H33.1293ZM37.2237 12.6761L39.0348 16H37.1172L35.3416 12.6761H37.2237ZM44.2031 11.103C44.1629 10.9538 44.1037 10.8224 44.0255 10.7088C43.9474 10.5928 43.8515 10.4946 43.7379 10.4141C43.6243 10.3336 43.4941 10.2732 43.3473 10.233C43.2005 10.1903 43.0395 10.169 42.8643 10.169C42.5116 10.169 42.2062 10.2543 41.9481 10.4247C41.6924 10.5952 41.4948 10.8437 41.3551 11.1705C41.2154 11.4948 41.1456 11.889 41.1456 12.353C41.1456 12.8194 41.213 13.2171 41.348 13.5462C41.4829 13.8752 41.6782 14.1262 41.9339 14.299C42.1896 14.4718 42.4997 14.5582 42.8643 14.5582C43.1863 14.5582 43.4585 14.5062 43.6811 14.402C43.906 14.2955 44.0764 14.1451 44.1924 13.951C44.3084 13.7569 44.3664 13.5284 44.3664 13.2656L44.6932 13.3047H42.9247V12.0227H46.0603V12.9851C46.0603 13.6361 45.9218 14.1937 45.6449 14.6577C45.3702 15.1217 44.9914 15.478 44.5085 15.7266C44.0279 15.9751 43.4751 16.0994 42.8501 16.0994C42.1565 16.0994 41.5468 15.9491 41.0213 15.6484C40.4957 15.3478 40.0861 14.9193 39.7926 14.3629C39.499 13.8042 39.3522 13.1413 39.3522 12.3743C39.3522 11.7777 39.441 11.2486 39.6186 10.7869C39.7961 10.3229 40.0435 9.92992 40.3608 9.60795C40.6804 9.28598 41.0497 9.04214 41.4687 8.87642C41.8901 8.7107 42.3435 8.62784 42.8288 8.62784C43.2502 8.62784 43.642 8.68821 44.0042 8.80895C44.3688 8.92969 44.6908 9.10014 44.9701 9.32031C45.2519 9.54048 45.4803 9.80208 45.6555 10.1051C45.8307 10.4081 45.9396 10.7408 45.9822 11.103H44.2031ZM48.1249 16H46.2357L48.6896 8.72727H51.0298L53.4836 16H51.5944L49.8863 10.5597H49.8295L48.1249 16ZM47.8728 13.1378H51.8217V14.473H47.8728V13.1378ZM60.1362 8.72727V16H58.6448L55.7506 11.8026H55.7044V16H53.9466V8.72727H55.4594L58.3216 12.9176H58.382V8.72727H60.1362ZM62.6794 8.72727V16H60.9215V8.72727H62.6794ZM70.0644 11.3622H68.2889C68.2652 11.1799 68.2167 11.0154 68.1433 10.8686C68.0699 10.7218 67.9728 10.5964 67.8521 10.4922C67.7313 10.388 67.5881 10.3087 67.4224 10.2543C67.259 10.1974 67.0779 10.169 66.8791 10.169C66.5263 10.169 66.2221 10.2554 65.9664 10.4283C65.7131 10.6011 65.5178 10.8509 65.3805 11.1776C65.2455 11.5043 65.1781 11.8996 65.1781 12.3636C65.1781 12.8466 65.2467 13.2514 65.384 13.5781C65.5237 13.9025 65.719 14.1475 65.97 14.3132C66.2233 14.4766 66.5228 14.5582 66.8684 14.5582C67.0625 14.5582 67.2389 14.5334 67.3975 14.4837C67.5585 14.4339 67.6994 14.3617 67.8201 14.267C67.9432 14.17 68.0438 14.0528 68.122 13.9155C68.2025 13.7758 68.2581 13.6184 68.2889 13.4432L70.0644 13.4538C70.0337 13.7758 69.9401 14.093 69.7839 14.4055C69.63 14.718 69.4181 15.0033 69.1482 15.2614C68.8784 15.517 68.5493 15.7206 68.161 15.8722C67.7751 16.0237 67.3324 16.0994 66.8329 16.0994C66.1748 16.0994 65.5853 15.955 65.0644 15.6662C64.546 15.375 64.1364 14.9512 63.8357 14.3949C63.5351 13.8385 63.3847 13.1615 63.3847 12.3636C63.3847 11.5634 63.5374 10.8852 63.8428 10.3288C64.1482 9.77249 64.5614 9.34991 65.0822 9.06108C65.603 8.77225 66.1866 8.62784 66.8329 8.62784C67.2732 8.62784 67.6804 8.68939 68.0545 8.8125C68.4285 8.93324 68.7576 9.1108 69.0417 9.34517C69.3258 9.57718 69.5566 9.86245 69.7342 10.201C69.9117 10.5395 70.0218 10.9266 70.0644 11.3622Z" fill="#166534"/>
<defs>
<linearGradient id="paint0_linear_6314_2931" x1="0" y1="12" x2="80.19" y2="12" gradientUnits="userSpaceOnUse">
<stop stop-color="#D4FC79"/>
<stop offset="0.5" stop-color="#96E6A1"/>
</linearGradient>
</defs>
</svg>
